            # .PCD v0.7 - Point Cloud Data file format
            VERSION 0.7
            FIELDS x y z
            SIZE 4 4 4
            TYPE F F F
            COUNT 1 1 1
            WIDTH 1194
            HEIGHT 1
            VIEWPOINT 0 0 0 1 0 0 0
            POINTS 1194
            DATA ascii
            5.924531 -109.966095 464.217698
0.464326 -109.408250 464.796842
5.927726 -109.193150 464.249066
6.693963 -109.189954 464.171135
-0.198972 -108.445769 464.903883
0.467529 -108.633660 464.828277
1.333502 -108.439378 464.748021
2.099739 -108.436183 464.670090
2.865976 -108.432987 464.592159
3.632212 -108.429792 464.514228
4.398448 -108.426596 464.436297
5.164686 -108.423401 464.358366
5.930922 -108.420205 464.280435
6.783798 -108.225979 464.201510
7.548397 -108.222790 464.123746
8.312997 -108.219602 464.045981
9.159323 -108.025402 463.967723
9.922286 -108.022220 463.890125
10.685247 -108.019038 463.812527
11.448209 -108.015856 463.734929
-0.962013 -107.676020 465.013182
-0.195776 -107.672824 464.935251
1.336698 -107.666433 464.779389
2.102935 -107.663238 464.701458
2.869171 -107.660042 464.623527
3.635408 -107.656847 464.545596
4.401644 -107.653651 464.467665
5.167881 -107.650456 464.389734
5.934118 -107.647260 464.311803
6.786987 -107.454687 464.232812
7.551586 -107.451498 464.155047
8.316186 -107.448309 464.077283
9.162505 -107.255763 463.998957
9.925468 -107.252581 463.921359
10.688429 -107.249399 463.843761
11.451391 -107.246217 463.766163
12.289525 -107.053705 463.688670
13.050850 -107.050530 463.611239
13.812175 -107.047355 463.533807
-2.385017 -106.721659 465.197287
-1.620418 -106.718470 465.119522
-0.855818 -106.715282 465.041758
-0.192580 -106.899880 464.966620
0.573656 -106.896684 464.888689
1.339894 -106.893489 464.810757
2.106131 -106.890293 464.732826
2.872367 -106.887098 464.654895
3.638604 -106.883902 464.576964
4.404839 -106.880707 464.499034
5.171077 -106.877511 464.421102
6.025576 -106.686584 464.341877
6.790176 -106.683395 464.264113
7.554775 -106.680206 464.186348
8.402725 -106.489306 464.107789
9.165687 -106.486124 464.030191
9.928650 -106.482943 463.952593
10.770051 -106.292061 463.874701
11.531376 -106.288886 463.797269
12.292701 -106.285711 463.719838
13.054025 -106.282536 463.642406
13.815351 -106.279361 463.564975
14.576675 -106.276186 463.487543
-3.146428 -105.953548 465.306353
-2.381828 -105.950360 465.228588
-1.617229 -105.947171 465.150824
-0.852629 -105.943982 465.073059
-0.088030 -105.940794 464.995295
0.576852 -106.123740 464.920057
1.441168 -105.934416 464.839766
2.205768 -105.931228 464.762001
2.875563 -106.114154 464.686264
3.641799 -106.110958 464.608333
4.499567 -105.921662 464.528708
5.264165 -105.918473 464.450944
6.028765 -105.915284 464.373179
6.793364 -105.912096 464.295415
7.557964 -105.908907 464.217650
8.405907 -105.719659 464.139024
9.168870 -105.716477 464.061426
9.931832 -105.713295 463.983828
10.773226 -105.524075 463.905868
11.534551 -105.520900 463.828436
12.295876 -105.517725 463.751005
13.057200 -105.514550 463.673574
13.818526 -105.511375 463.596142
14.579850 -105.508200 463.518711
15.341175 -105.505025 463.441279
-2.378640 -105.179068 465.259890
-1.614040 -105.175879 465.182125
-0.849440 -105.172691 465.104361
-0.084841 -105.169502 465.026596
1.444357 -105.163125 464.871067
2.208957 -105.159936 464.793303
2.878759 -105.341209 464.717632
3.644995 -105.338013 464.639701
4.502756 -105.150370 464.560009
5.267354 -105.147181 464.482245
6.031954 -105.143993 464.404480
6.796553 -105.140804 464.326716
7.561153 -105.137615 464.248951
8.409089 -104.950020 464.170258
9.172052 -104.946838 464.092660
9.935014 -104.943656 464.015062
10.776401 -104.756081 463.937035
11.537727 -104.752906 463.859604
12.299051 -104.749731 463.782173
13.060376 -104.746556 463.704741
13.821701 -104.743381 463.627310
14.583026 -104.740206 463.549878
-5.208246 -104.054770 465.594263
-4.446921 -104.051595 465.516832
-2.269198 -104.224919 465.287864
-1.506236 -104.221738 465.210266
-0.743274 -104.218556 465.132668
-0.081652 -104.398210 465.057898
0.682947 -104.395021 464.980133
1.447546 -104.391832 464.902369
2.212146 -104.388644 464.824604
2.976745 -104.385455 464.746840
3.741345 -104.382266 464.669075
4.505945 -104.379078 464.591311
5.270543 -104.375889 464.513546
6.035143 -104.372700 464.435782
6.886347 -104.186737 464.356689
7.649310 -104.183555 464.279091
8.412271 -104.180374 464.201493
9.175234 -104.177192 464.123895
9.938196 -104.174010 464.046297
10.779576 -103.988095 463.968203
11.540902 -103.984920 463.890771
12.302226 -103.981745 463.813340
13.063551 -103.978570 463.735908
13.824876 -103.975395 463.658477
14.656433 -103.789514 463.581382
15.416121 -103.786346 463.504117
16.175809 -103.783178 463.426852
16.935497 -103.780009 463.349587
-5.966395 -103.289951 465.702862
-5.205071 -103.286776 465.625431
-4.443745 -103.283601 465.547999
-3.682421 -103.280426 465.470568
-2.921096 -103.277251 465.393136
-2.266016 -103.455280 465.319099
-1.503054 -103.452098 465.241501
-0.740092 -103.448916 465.163903
0.022870 -103.445735 465.086305
0.785832 -103.442553 465.008707
1.548794 -103.439371 464.931109
2.215335 -103.617352 464.855906
2.979934 -103.614163 464.778141
3.837681 -103.429825 464.698315
4.600643 -103.426644 464.620717
5.363605 -103.423462 464.543119
6.126568 -103.420280 464.465521
6.889529 -103.417098 464.387923
7.652492 -103.413916 464.310325
8.498777 -103.229626 464.231665
9.260103 -103.226451 464.154233
10.021426 -103.223276 464.076802
10.861163 -103.039021 463.998807
11.620851 -103.035853 463.921542
12.380538 -103.032685 463.844277
13.140226 -103.029517 463.767012
13.899913 -103.026348 463.689747
14.659602 -103.023180 463.612482
15.419289 -103.020012 463.535217
16.178978 -103.016844 463.457952
16.938665 -103.013676 463.380687
17.698353 -103.010507 463.303422
-6.724545 -102.525140 465.811461
-5.963220 -102.521965 465.734029
-5.201896 -102.518790 465.656598
-4.440570 -102.515615 465.579166
-3.679246 -102.512440 465.501735
-2.917921 -102.509265 465.424303
-2.262834 -102.685641 465.350333
-1.499872 -102.682459 465.272735
-0.736910 -102.679277 465.195137
0.026052 -102.676095 465.117539
0.789014 -102.672914 465.039941
1.551976 -102.669732 464.962343
2.218524 -102.846060 464.887207
2.983123 -102.842871 464.809442
3.840863 -102.660186 464.729549
4.603825 -102.657004 464.651951
5.366787 -102.653822 464.574353
6.129750 -102.650641 464.496755
6.892711 -102.647459 464.419157
7.655674 -102.644277 464.341559
8.501952 -102.461640 464.262832
9.263278 -102.458465 464.185400
10.024601 -102.455290 464.107969
10.864332 -102.272680 464.029907
11.624019 -102.269512 463.952642
12.383707 -102.266344 463.875377
13.143394 -102.263176 463.798113
13.903082 -102.260008 463.720848
14.662770 -102.256839 463.643583
15.422458 -102.253671 463.566318
16.182146 -102.250503 463.489053
16.941834 -102.247335 463.411788
17.701521 -102.244167 463.334523
-7.482695 -101.760321 465.920060
-6.721369 -101.757146 465.842628
-5.960045 -101.753971 465.765197
-5.198720 -101.750796 465.687765
-4.437395 -101.747621 465.610334
-3.676070 -101.744446 465.532902
-2.914746 -101.741271 465.455471
-2.259652 -101.915995 465.381567
-1.496690 -101.912813 465.303969
-0.733728 -101.909631 465.226372
0.029234 -101.906449 465.148774
0.792196 -101.903267 465.071176
1.555159 -101.900085 464.993578
3.937179 -101.712696 464.758588
4.698503 -101.709521 464.681156
5.459829 -101.706346 464.603725
10.867500 -101.506340 464.061008
11.627188 -101.503171 463.983743
12.461999 -101.322235 463.906114
13.220050 -101.319073 463.829015
13.978100 -101.315912 463.751917
14.736151 -101.312750 463.674818
15.494201 -101.309589 463.597720
16.185315 -101.484162 463.520153
16.945002 -101.480994 463.442888
17.704689 -101.477826 463.365623
18.464377 -101.474658 463.288358
-7.479520 -100.992335 465.951227
-6.718194 -100.989160 465.873795
-5.956870 -100.985985 465.796364
-5.195545 -100.982810 465.718933
-4.434220 -100.979635 465.641501
-3.672895 -100.976460 465.564070
-2.911571 -100.973285 465.486638
-2.150245 -100.970110 465.409207
-1.388921 -100.966935 465.331775
-0.627595 -100.963760 465.254344
0.133729 -100.960585 465.176912
0.895054 -100.957410 465.099481
1.656379 -100.954235 465.022049
2.417704 -100.951060 464.944618
3.179028 -100.947885 464.867187
3.940354 -100.944710 464.789755
4.701678 -100.941535 464.712324
5.463004 -100.938360 464.634892
6.312543 -100.759007 464.555698
7.072230 -100.755839 464.478433
7.831919 -100.752671 464.401168
8.674909 -100.573353 464.322639
9.432959 -100.570191 464.245541
10.191010 -100.567030 464.168442
10.949060 -100.563869 464.091344
11.707111 -100.560707 464.014245
12.465161 -100.557546 463.937147
13.223211 -100.554385 463.860049
13.981262 -100.551223 463.782950
14.739312 -100.548062 463.705852
15.497363 -100.544901 463.628753
16.255412 -100.541739 463.551655
17.013463 -100.538578 463.474557
17.771514 -100.535416 463.397458
18.529564 -100.532255 463.320360
19.227233 -100.705148 463.242194
-8.237669 -100.227516 466.059826
-7.476344 -100.224341 465.982394
-6.715019 -100.221166 465.904963
-5.953694 -100.217991 465.827531
-5.192370 -100.214816 465.750100
-4.431044 -100.211641 465.672669
-3.669720 -100.208466 465.595237
-2.908395 -100.205291 465.517806
-2.147070 -100.202116 465.440374
-1.385745 -100.198941 465.362943
-0.624420 -100.195766 465.285511
0.136905 -100.192591 465.208080
0.898229 -100.189416 465.130648
1.659555 -100.186241 465.053217
2.420879 -100.183066 464.975786
3.182204 -100.179891 464.898354
3.943529 -100.176716 464.820923
4.704854 -100.173541 464.743491
5.466179 -100.170366 464.666060
6.315711 -99.992674 464.586798
7.075399 -99.989506 464.509533
7.835087 -99.986338 464.432268
8.678070 -99.808665 464.353673
9.436121 -99.805504 464.276574
10.194171 -99.802343 464.199476
10.952222 -99.799181 464.122377
11.710273 -99.796020 464.045279
12.468323 -99.792859 463.968180
13.226373 -99.789697 463.891082
13.984423 -99.786536 463.813984
14.742474 -99.783374 463.736885
15.500524 -99.780213 463.659787
16.258574 -99.777052 463.582688
17.016625 -99.773890 463.505590
17.774676 -99.770729 463.428492
18.532726 -99.767568 463.351393
-8.995819 -99.462705 466.168425
-8.234494 -99.459530 466.090993
-7.473169 -99.456355 466.013562
-6.711844 -99.453180 465.936130
-5.950519 -99.450005 465.858699
-5.189195 -99.446830 465.781267
-4.427869 -99.443655 465.703836
-3.666545 -99.440480 465.626404
-2.905220 -99.437305 465.548973
-2.143895 -99.434130 465.471541
-1.382570 -99.430955 465.394110
-0.621245 -99.427780 465.316678
0.241379 -99.251678 465.236018
1.001066 -99.248510 465.158753
1.760754 -99.245342 465.081488
2.520442 -99.242173 465.004223
3.280130 -99.239005 464.926958
4.039817 -99.235837 464.849693
4.799505 -99.232669 464.772428
5.559192 -99.229501 464.695163
6.318880 -99.226332 464.617898
7.078567 -99.223164 464.540633
7.838256 -99.219996 464.463368
8.681232 -99.043985 464.384706
9.439282 -99.040823 464.307607
10.197333 -99.037662 464.230509
10.955383 -99.034501 464.153410
11.713435 -99.031339 464.076312
12.471484 -99.028178 463.999214
13.229534 -99.025017 463.922115
13.987585 -99.021855 463.845017
14.745635 -99.018694 463.767918
15.503686 -99.015533 463.690820
16.261735 -99.012371 463.613722
17.019787 -99.009210 463.536623
17.777837 -99.006048 463.459525
18.535888 -99.002887 463.382426
-8.992644 -98.694711 466.199592
-8.231318 -98.691536 466.122161
-7.469994 -98.688361 466.044729
-6.708668 -98.685186 465.967298
-5.947344 -98.682011 465.889866
-5.186019 -98.678836 465.812435
-4.424694 -98.675661 465.735003
-3.663369 -98.672486 465.657572
-2.902045 -98.669311 465.580140
-2.034515 -98.494842 465.498913
-1.274827 -98.491674 465.421648
-0.515140 -98.488505 465.344383
0.244547 -98.485337 465.267118
1.004235 -98.482169 465.189853
1.763922 -98.479001 465.112588
2.523611 -98.475833 465.035323
3.283298 -98.472664 464.958058
4.042986 -98.469496 464.880794
4.802673 -98.466328 464.803529
5.562361 -98.463160 464.726264
6.410243 -98.288780 464.647034
7.168294 -98.285619 464.569936
7.926344 -98.282458 464.492837
8.684394 -98.279296 464.415739
9.442444 -98.276135 464.338641
10.200494 -98.272974 464.261542
11.036916 -98.098634 464.183479
11.793329 -98.095479 464.106547
12.549742 -98.092325 464.029615
13.306156 -98.089170 463.952683
13.990747 -98.257167 463.876050
14.748797 -98.254005 463.798952
15.506847 -98.250844 463.721853
16.264897 -98.247683 463.644755
17.022948 -98.244521 463.567656
17.780999 -98.241360 463.490558
18.539049 -98.238199 463.413460
19.297099 -98.235037 463.336361
19.996426 -98.402964 463.258230
-8.989469 -97.926725 466.230759
-8.228143 -97.923550 466.153328
-7.466819 -97.920375 466.075896
-6.705493 -97.917200 465.998465
-5.944169 -97.914025 465.921033
-5.182844 -97.910850 465.843602
-4.310410 -97.738013 465.761808
-3.550722 -97.734844 465.684543
-2.791034 -97.731676 465.607278
-2.031347 -97.728508 465.530013
-1.271659 -97.725340 465.452748
-0.511972 -97.722172 465.375483
0.247716 -97.719003 465.298218
1.007403 -97.715835 465.220953
1.767091 -97.712667 465.143689
2.526779 -97.709499 465.066423
3.286467 -97.706331 464.989159
4.046154 -97.703163 464.911894
4.805842 -97.699994 464.834629
5.565529 -97.696826 464.757364
6.413405 -97.524092 464.678067
7.171455 -97.520931 464.600969
7.929506 -97.517769 464.523871
8.687555 -97.514608 464.446772
9.445606 -97.511446 464.369674
10.203656 -97.508285 464.292576
11.040070 -97.335599 464.214445
11.796484 -97.332444 464.137513
12.552897 -97.329290 464.060581
13.309311 -97.326135 463.983649
13.993908 -97.492478 463.907083
14.751959 -97.489317 463.829985
15.510009 -97.486156 463.752887
16.268058 -97.482994 463.675788
17.026110 -97.479833 463.598690
17.784160 -97.476671 463.521591
18.542211 -97.473510 463.444493
19.300260 -97.470349 463.367395
19.999594 -97.636631 463.289330
20.759281 -97.633462 463.212065
-8.986293 -97.158731 466.261927
-8.224968 -97.155556 466.184495
-7.463643 -97.152381 466.107064
-6.702318 -97.149206 466.029632
-5.940993 -97.146031 465.952201
-5.179669 -97.142856 465.874770
-4.307242 -96.971672 465.792908
-3.547554 -96.968504 465.715643
-2.787866 -96.965335 465.638378
-2.028178 -96.962167 465.561114
-1.268491 -96.958999 465.483849
-0.508803 -96.955831 465.406584
0.250884 -96.952663 465.329319
1.010572 -96.949495 465.252054
1.770259 -96.946326 465.174789
2.529948 -96.943158 465.097524
3.289635 -96.939990 465.020259
4.049323 -96.936822 464.942994
4.809010 -96.933654 464.865729
5.658516 -96.762565 464.786199
6.416566 -96.759403 464.709101
7.174617 -96.756242 464.632002
7.932667 -96.753081 464.554904
8.690717 -96.749919 464.477806
9.448767 -96.746758 464.400707
10.286813 -96.575718 464.322343
11.043225 -96.572563 464.245411
11.799639 -96.569409 464.168479
12.556052 -96.566254 464.091547
13.312465 -96.563100 464.014615
13.997070 -96.727790 463.938117
14.755120 -96.724628 463.861018
15.513171 -96.721467 463.783920
16.271220 -96.718306 463.706822
17.029271 -96.715144 463.629723
17.787322 -96.711983 463.552625
18.545372 -96.708822 463.475526
19.303422 -96.705660 463.398428
20.002762 -96.870290 463.320431
20.762450 -96.867122 463.243166
-9.104038 -96.557142 466.298590
-8.341074 -96.553961 466.220992
-7.460468 -96.384395 466.138231
-6.699143 -96.381220 466.060800
-5.937818 -96.378045 465.983368
-5.176494 -96.374870 465.905937
-4.415168 -96.371695 465.828505
-3.653844 -96.368520 465.751074
-2.784697 -96.198995 465.669479
-2.025010 -96.195827 465.592214
-1.265322 -96.192658 465.514949
-0.505635 -96.189490 465.437684
0.254053 -96.186322 465.360419
1.013740 -96.183154 465.283154
1.773428 -96.179986 465.205889
2.533116 -96.176817 465.128624
3.387526 -96.007361 465.048528
4.145577 -96.004200 464.971429
4.903627 -96.001039 464.894331
5.661678 -95.997877 464.817233
6.419728 -95.994716 464.740134
7.177778 -95.991555 464.663036
7.935829 -95.988393 464.585937
8.777141 -95.818992 464.507173
9.533554 -95.815837 464.430241
10.289968 -95.812683 464.353309
11.046380 -95.809528 464.276377
11.802793 -95.806374 464.199445
12.559207 -95.803219 464.122514
13.315620 -95.800065 464.045582
14.072033 -95.796910 463.968650
14.828446 -95.793755 463.891718
15.584859 -95.790601 463.814786
16.341273 -95.787446 463.737854
17.032433 -95.950457 463.660756
17.790483 -95.947295 463.583658
18.548534 -95.944134 463.506560
19.246243 -96.107117 463.428796
20.005931 -96.103949 463.351531
20.765618 -96.100781 463.274266
-8.337892 -95.784314 466.252226
-7.457293 -95.616401 466.169399
-6.695967 -95.613226 466.091967
-5.934643 -95.610051 466.014536
-5.173318 -95.606876 465.937104
-4.411993 -95.603701 465.859673
-3.650668 -95.600526 465.782241
-2.781529 -95.432661 465.700579
-2.021841 -95.429493 465.623314
-1.262154 -95.426325 465.546049
-0.502466 -95.423156 465.468784
0.257221 -95.419988 465.391519
1.016909 -95.416820 465.314254
1.874587 -95.248996 465.233758
2.632637 -95.245834 465.156660
3.390688 -95.242673 465.079561
4.148738 -95.239511 465.002463
4.906789 -95.236350 464.925364
5.664839 -95.233189 464.848266
6.422890 -95.230027 464.771168
7.180940 -95.226866 464.694069
7.938990 -95.223705 464.616971
8.780296 -95.055955 464.538139
9.536709 -95.052801 464.461207
10.293122 -95.049646 464.384276
11.049535 -95.046492 464.307344
11.805948 -95.043337 464.230412
12.562361 -95.040183 464.153480
13.318775 -95.037028 464.076548
14.075187 -95.033874 463.999616
14.831601 -95.030719 463.922684
15.588014 -95.027565 463.845752
16.344427 -95.024410 463.768820
17.035595 -95.185768 463.691790
17.793645 -95.182607 463.614691
18.551695 -95.179446 463.537593
19.249412 -95.340783 463.459896
20.009099 -95.337615 463.382631
20.768787 -95.334447 463.305366
-7.454118 -94.848415 466.200566
-6.692792 -94.845240 466.123134
-5.931468 -94.842065 466.045703
-5.170143 -94.838890 465.968271
-4.408818 -94.835715 465.890840
-3.647493 -94.832540 465.813409
-2.778360 -94.666320 465.731679
-2.018673 -94.663152 465.654415
-1.258985 -94.659984 465.577150
-0.499298 -94.656816 465.499885
0.260390 -94.653647 465.422620
1.020077 -94.650479 465.345355
1.877749 -94.484307 465.264791
2.635799 -94.481146 465.187693
3.393849 -94.477984 465.110595
4.151900 -94.474823 465.033496
4.909950 -94.471662 464.956398
5.668001 -94.468500 464.879299
6.514211 -94.302384 464.799901
7.270624 -94.299229 464.722969
8.027037 -94.296075 464.646038
8.783450 -94.292920 464.569106
9.539864 -94.289766 464.492174
10.296277 -94.286611 464.415242
11.052689 -94.283457 464.338310
11.809103 -94.280302 464.261378
12.565516 -94.277148 464.184446
13.321930 -94.273993 464.107514
14.078342 -94.270838 464.030582
14.834755 -94.267684 463.953651
15.591169 -94.264529 463.876719
16.347582 -94.261375 463.799787
17.038756 -94.421080 463.722823
17.796807 -94.417918 463.645725
18.554857 -94.414757 463.568626
19.252580 -94.574443 463.490997
20.012268 -94.571275 463.413732
20.771955 -94.568106 463.336467
21.476228 -94.727765 463.258171
22.183775 -94.887401 463.179542
-6.689617 -94.077246 466.154302
-5.928292 -94.074071 466.076870
-5.166968 -94.070896 465.999439
-4.405642 -94.067721 465.922007
-3.644318 -94.064546 465.844576
-2.775192 -93.899979 465.762780
-2.015504 -93.896811 465.685515
-1.255817 -93.893643 465.608250
-0.496130 -93.890475 465.530985
0.263558 -93.887307 465.453720
1.023245 -93.884139 465.376455
1.880910 -93.719627 465.295825
2.638961 -93.716465 465.218726
3.397011 -93.713304 465.141628
4.155061 -93.710142 465.064529
4.913112 -93.706981 464.987431
5.671162 -93.703820 464.910332
6.517366 -93.539349 464.830868
7.273779 -93.536194 464.753936
8.030192 -93.533040 464.677004
8.786605 -93.529885 464.600072
9.543018 -93.526730 464.523140
11.888950 -93.356005 464.291144
12.643727 -93.352857 464.214378
13.325084 -93.510958 464.138481
14.081497 -93.507803 464.061549
14.837910 -93.504649 463.984617
15.594324 -93.501494 463.907685
16.350737 -93.498340 463.830753
17.041918 -93.656399 463.753856
17.799968 -93.653238 463.676758
18.558019 -93.650077 463.599659
19.255749 -93.808102 463.522097
19.956753 -93.966121 463.444201
20.718077 -93.962946 463.366770
21.479404 -93.959771 463.289338
22.186957 -94.117762 463.210776
22.949919 -94.114580 463.133178
-7.565384 -93.472208 466.268332
-6.686442 -93.309260 466.185469
-5.925117 -93.306085 466.108038
-5.163793 -93.302910 466.030606
-4.402467 -93.299735 465.953175
-3.641143 -93.296560 465.875743
-2.772024 -93.133646 465.793880
-2.012336 -93.130478 465.716615
-1.252649 -93.127309 465.639350
-0.492961 -93.124141 465.562085
0.266726 -93.120973 465.484820
1.026414 -93.117805 465.407555
1.884072 -92.954939 465.326858
2.642122 -92.951778 465.249759
3.400173 -92.948616 465.172661
4.158223 -92.945455 465.095563
4.916273 -92.942294 465.018464
6.520521 -92.776313 464.861834
7.276934 -92.773159 464.784902
8.033346 -92.770004 464.707970
8.789760 -92.766850 464.631038
9.546173 -92.763695 464.554106
11.892098 -92.594623 464.322043
12.646875 -92.591475 464.245277
13.328239 -92.747923 464.169447
14.084652 -92.744768 464.092515
14.841065 -92.741613 464.015583
15.597478 -92.738459 463.938651
16.353892 -92.735304 463.861719
17.045079 -92.891712 463.784890
17.739542 -93.048105 463.707727
18.499230 -93.044936 463.630462
19.258917 -93.041768 463.553197
19.959928 -93.198135 463.475368
20.721252 -93.194960 463.397937
21.482579 -93.191785 463.320505
22.190139 -93.348116 463.242011
22.953101 -93.344934 463.164413
-7.562202 -92.702568 466.299566
-6.799241 -92.699387 466.221968
-6.036278 -92.696205 466.144370
-5.160617 -92.534916 466.061774
-4.399292 -92.531741 465.984342
-3.637967 -92.528566 465.906911
-2.876643 -92.525391 465.829479
-2.009168 -92.364137 465.747716
-1.249480 -92.360969 465.670451
-0.489793 -92.357800 465.593186
0.269895 -92.354632 465.515921
1.029582 -92.351464 465.438656
1.887233 -92.190251 465.357891
2.645284 -92.187089 465.280793
3.403334 -92.183928 465.203694
4.161385 -92.180766 465.126596
4.919435 -92.177605 465.049498
6.523675 -92.013278 464.892800
7.280089 -92.010124 464.815868
8.036501 -92.006969 464.738936
8.792915 -92.003814 464.662005
9.549328 -92.000660 464.585073
11.895246 -91.833240 464.352942
12.650023 -91.830092 464.276177
13.331394 -91.984887 464.200413
14.087806 -91.981733 464.123481
14.844220 -91.978578 464.046549
15.600633 -91.975424 463.969617
16.357046 -91.972269 463.892686
17.742710 -92.281764 463.738827
18.502398 -92.278596 463.661562
19.262085 -92.275427 463.584298
19.963103 -92.430141 463.506536
20.724428 -92.426966 463.429105
21.485754 -92.423791 463.351673
22.193321 -92.578476 463.273245
-7.559020 -91.932929 466.330800
-6.796058 -91.929747 466.253202
-6.033096 -91.926566 466.175604
-5.270133 -91.923384 466.098006
-4.396117 -91.763747 466.015510
-3.634792 -91.760572 465.938078
-2.873468 -91.757397 465.860647
-2.112142 -91.754222 465.783215
-1.350818 -91.751047 465.705784
-0.486624 -91.591460 465.624286
0.273063 -91.588291 465.547021
1.032751 -91.585123 465.469756
1.890395 -91.425562 465.388925
2.648445 -91.422401 465.311826
3.406496 -91.419239 465.234728
4.164546 -91.416078 465.157629
4.922597 -91.412917 465.080531
6.526830 -91.250243 464.923766
7.283243 -91.247088 464.846835
8.039656 -91.243934 464.769903
8.796069 -91.240779 464.692971
9.552483 -91.237625 464.616039
10.308896 -91.234470 464.539107
11.065308 -91.231316 464.462175
11.821722 -91.228161 464.385243
12.578135 -91.225007 464.308311
13.334549 -91.221852 464.231379
14.090961 -91.218697 464.154448
14.847374 -91.215543 464.077516
15.603788 -91.212388 464.000584
16.360201 -91.209234 463.923652
17.745879 -91.515423 463.769928
18.505566 -91.512255 463.692663
19.265254 -91.509087 463.615398
19.966278 -91.662147 463.537703
20.727603 -91.658972 463.460272
21.488929 -91.655797 463.382840
22.250254 -91.652622 463.305409
-7.555838 -91.163283 466.362035
-6.792876 -91.160101 466.284437
-6.029914 -91.156919 466.206839
-5.266951 -91.153737 466.129241
-4.392942 -90.995761 466.046677
-3.631617 -90.992586 465.969245
-2.870292 -90.989411 465.891814
-2.108967 -90.986236 465.814383
-1.347642 -90.983061 465.736951
-0.483456 -90.825126 465.655386
0.276232 -90.821958 465.578121
1.035919 -90.818789 465.500856
1.893557 -90.660875 465.419958
2.651607 -90.657713 465.342860
3.409657 -90.654552 465.265761
4.167708 -90.651390 465.188663
4.925758 -90.648229 465.111564
6.529985 -90.487208 464.954733
7.286398 -90.484053 464.877801
8.042811 -90.480899 464.800869
8.799224 -90.477744 464.723937
9.555637 -90.474589 464.647005
10.312051 -90.471435 464.570073
11.068463 -90.468280 464.493141
11.824877 -90.465126 464.416210
12.581290 -90.461971 464.339278
13.337703 -90.458817 464.262346
14.094116 -90.455662 464.185414
14.850529 -90.452508 464.108482
15.606943 -90.449353 464.031550
16.363356 -90.446199 463.954618
17.054564 -90.597647 463.877990
17.749047 -90.749089 463.801028
18.508735 -90.745921 463.723763
19.268422 -90.742753 463.646498
19.969454 -90.894161 463.568871
20.730778 -90.890986 463.491439
21.492105 -90.887811 463.414008
22.253429 -90.884636 463.336576
23.014753 -90.881461 463.259145
-6.789694 -90.390462 466.315671
-6.026732 -90.387280 466.238073
-5.263769 -90.384098 466.160475
-4.500808 -90.380916 466.082877
-3.737845 -90.377734 466.005279
-2.867117 -90.221417 465.922982
-2.105792 -90.218242 465.845550
-1.344467 -90.215067 465.768119
-0.480287 -90.058785 465.686487
0.279400 -90.055617 465.609222
1.039087 -90.052449 465.531957
1.798775 -90.049281 465.454692
2.558463 -90.046112 465.377427
3.412819 -89.889863 465.296794
4.170869 -89.886702 465.219696
4.928920 -89.883541 465.142598
5.686970 -89.880379 465.065499
7.289553 -89.721018 464.908767
8.045965 -89.717863 464.831835
8.802379 -89.714709 464.754903
9.558792 -89.711554 464.677971
10.315206 -89.708400 464.601040
11.071618 -89.705245 464.524108
11.828031 -89.702091 464.447176
12.584445 -89.698936 464.370244
13.340858 -89.695782 464.293312
14.097271 -89.692627 464.216380
14.853684 -89.689472 464.139448
15.610097 -89.686318 464.062516
16.366511 -89.683163 463.985584
17.057726 -89.832959 463.909023
17.815776 -89.829797 463.831925
18.573827 -89.826636 463.754826
19.271591 -89.976412 463.677599
20.031278 -89.973244 463.600334
20.790966 -89.970076 463.523069
21.495280 -90.119817 463.445175
22.256604 -90.116642 463.367744
23.017928 -90.113467 463.290312
-7.667058 -89.775521 466.430270
-6.902458 -89.772332 466.352505
-6.137858 -89.769143 466.274741
-5.260587 -89.614459 466.191709
-4.497626 -89.611277 466.114112
-3.734663 -89.608095 466.036514
-2.971702 -89.604913 465.958916
-2.102617 -89.450256 465.876717
-1.341292 -89.447081 465.799286
-0.579967 -89.443906 465.721854
0.282568 -89.289275 465.640322
1.042256 -89.286107 465.563057
1.801943 -89.282939 465.485792
2.561632 -89.279771 465.408527
3.415981 -89.125183 465.327828
4.174031 -89.122021 465.250729
4.932081 -89.118860 465.173631
5.690132 -89.115699 465.096532
6.448182 -89.112537 465.019434
7.206233 -89.109376 464.942335
8.049120 -88.954827 464.862802
8.805534 -88.951672 464.785870
9.561947 -88.948518 464.708938
10.318360 -88.945363 464.632006
11.074773 -88.942209 464.555074
11.831186 -88.939054 464.478142
12.587600 -88.935900 464.401210
13.344013 -88.932745 464.324278
14.100425 -88.929591 464.247346
14.856839 -88.926436 464.170415
15.544786 -89.074601 464.094253
16.302836 -89.071440 464.017155
17.060887 -89.068278 463.940056
17.818938 -89.065117 463.862958
18.576988 -89.061956 463.785859
19.274759 -89.210070 463.708699
20.034447 -89.206902 463.631434
20.794134 -89.203734 463.554169
21.498455 -89.351831 463.476342
22.259780 -89.348656 463.398911
23.021103 -89.345481 463.321480
-7.663869 -89.004228 466.461571
-6.899269 -89.001039 466.383807
-6.134669 -88.997851 466.306042
-5.257405 -88.844812 466.222944
-4.494444 -88.841630 466.145346
-3.731481 -88.838448 466.067748
-2.968519 -88.835266 465.990150
-2.099441 -88.682262 465.907885
-1.338117 -88.679087 465.830453
-0.576791 -88.675912 465.753022
0.285737 -88.522942 465.671422
1.045424 -88.519774 465.594157
1.805112 -88.516606 465.516893
2.564800 -88.513438 465.439628
3.419142 -88.360494 465.358861
4.177193 -88.357333 465.281763
4.935243 -88.354172 465.204664
5.693293 -88.351010 465.127566
6.451344 -88.347849 465.050467
7.209394 -88.344687 464.973369
8.052275 -88.191792 464.893768
8.808688 -88.188637 464.816836
9.565102 -88.185483 464.739904
10.321515 -88.182328 464.662972
11.077928 -88.179174 464.586040
11.834341 -88.176019 464.509108
12.590754 -88.172865 464.432176
13.347168 -88.169710 464.355245
14.103580 -88.166555 464.278313
14.859993 -88.163401 464.201381
15.547948 -88.309913 464.125286
16.305997 -88.306751 464.048188
17.064049 -88.303590 463.971090
17.822099 -88.300428 463.893991
18.580150 -88.297267 463.816893
19.277927 -88.443738 463.739799
20.037615 -88.440569 463.662534
20.797302 -88.437401 463.585269
21.501630 -88.583837 463.507510
22.262955 -88.580662 463.430078
23.024278 -88.577487 463.352647
-7.012012 -88.377959 466.420841
-4.602281 -88.220182 466.181814
-3.837682 -88.216993 466.104050
-3.073083 -88.213805 466.026285
-1.439412 -88.059264 465.866188
0.949033 -87.901576 465.629326
1.710358 -87.898401 465.551895
2.471683 -87.895226 465.474463
4.087344 -87.740760 465.316198
5.696455 -87.586322 465.158599
6.454505 -87.583160 465.081501
7.212556 -87.579999 465.004402
7.970606 -87.576838 464.927304
8.728656 -87.573676 464.850205
9.486706 -87.570515 464.773107
10.324670 -87.419293 464.693938
11.081082 -87.416138 464.617007
11.837496 -87.412984 464.540075
12.593909 -87.409829 464.463143
13.350322 -87.406675 464.386211
14.106735 -87.403520 464.309279
14.793059 -87.548385 464.233418
15.551110 -87.545224 464.156320
16.309159 -87.542063 464.079221
17.067210 -87.538901 464.002123
17.761721 -87.683732 463.925429
18.521408 -87.680564 463.848165
19.281096 -87.677396 463.770900
20.040783 -87.674228 463.693635
20.800471 -87.671060 463.616370
21.504806 -87.815851 463.538677
22.266130 -87.812676 463.461246
23.027454 -87.809501 463.383814
-7.892616 -87.754774 466.536108
-7.124742 -87.751572 466.458011
-6.356868 -87.748369 466.379913
-5.476343 -87.598623 466.296348
-4.710107 -87.595428 466.218417
-3.943870 -87.592232 466.140486
-3.069894 -87.442512 466.057587
-2.305295 -87.439323 465.979822
-1.540695 -87.436135 465.902058
-0.776096 -87.432946 465.824293
0.089694 -87.283253 465.742227
0.852655 -87.280071 465.664629
1.713534 -87.130407 465.583062
2.474858 -87.127232 465.505631
3.236183 -87.124057 465.428199
3.997508 -87.120882 465.350768
4.758833 -87.117707 465.273337
5.609887 -86.968083 465.192769
6.369574 -86.964914 465.115504
7.129262 -86.961746 465.038239
7.973768 -86.812150 464.958337
8.731817 -86.808989 464.881239
9.489868 -86.805827 464.804140
10.247918 -86.802666 464.727042
11.005969 -86.799505 464.649944
11.764020 -86.796343 464.572845
12.522069 -86.793182 464.495747
13.280120 -86.790021 464.418648
14.038170 -86.786859 464.341550
14.796221 -86.783698 464.264451
15.554271 -86.780537 464.187353
16.312321 -86.777375 464.110255
17.070372 -86.774214 464.033156
17.764889 -86.917392 463.956530
18.524577 -86.914223 463.879265
19.284264 -86.911055 463.802000
19.985330 -87.054207 463.724708
20.746654 -87.051032 463.647276
21.507981 -87.047857 463.569845
22.269305 -87.044682 463.492413
23.030629 -87.041507 463.414982
-7.121539 -86.976975 466.489446
-6.353666 -86.973772 466.411349
-5.473148 -86.825678 466.327716
-4.706911 -86.822483 466.249785
-3.940674 -86.819287 466.171854
-3.066705 -86.671213 466.088889
-2.302106 -86.668024 466.011124
-1.537506 -86.664835 465.933360
-0.772907 -86.661647 465.855595
0.092876 -86.513614 465.773461
0.855837 -86.510432 465.695864
1.716709 -86.362420 465.614230
2.478033 -86.359245 465.536798
3.239358 -86.356070 465.459367
4.000683 -86.352895 465.381935
4.762008 -86.349720 465.304504
5.613055 -86.201742 465.223869
6.372743 -86.198574 465.146604
7.132430 -86.195405 465.069339
7.976929 -86.047462 464.989371
8.734979 -86.044300 464.912272
9.493029 -86.041139 464.835174
10.251080 -86.037978 464.758075
11.009130 -86.034816 464.680977
11.767182 -86.031655 464.603878
12.525231 -86.028493 464.526780
13.283281 -86.025332 464.449682
14.041332 -86.022171 464.372583
14.799382 -86.019009 464.295485
15.557433 -86.015848 464.218386
16.315482 -86.012687 464.141288
17.073534 -86.009525 464.064190
17.768058 -86.151051 463.987630
18.527745 -86.147883 463.910365
19.287433 -86.144714 463.833100
19.988505 -86.286220 463.755875
20.749830 -86.283045 463.678443
21.511156 -86.279870 463.601012
22.272481 -86.276695 463.523580
-4.703715 -86.049538 466.281154
-3.937479 -86.046343 466.203223
-3.171242 -86.043147 466.125292
-2.405005 -86.039952 466.047361
-1.638769 -86.036756 465.969430
3.147906 -85.731248 465.494304
3.910869 -85.728066 465.416706
6.287833 -85.575377 465.180808
8.654975 -85.422735 464.945910
9.414662 -85.419567 464.868645
10.174350 -85.416399 464.791380
10.934037 -85.413231 464.714115
11.693724 -85.410063 464.636850
12.453412 -85.406894 464.559585
13.213099 -85.403726 464.482320
14.044494 -85.257482 464.403617
14.802544 -85.254321 464.326518
15.560594 -85.251160 464.249420
16.318644 -85.247998 464.172322
17.011539 -85.387885 464.095995
17.771226 -85.384717 464.018730
18.530914 -85.381549 463.941466
19.290601 -85.378381 463.864201
19.991680 -85.518227 463.787042
20.753005 -85.515052 463.709611
21.514331 -85.511877 463.632179
-7.346945 -85.710994 466.564320
-6.575796 -85.707778 466.485890
-4.811512 -85.418173 466.318024
-4.043638 -85.414970 466.239927
-3.275765 -85.411768 466.161829
-2.507890 -85.408566 466.083732
-1.740017 -85.405363 466.005634
-0.972143 -85.402161 465.927537
-0.103100 -85.257420 465.844936
0.663137 -85.254225 465.767005
1.429374 -85.251029 465.689074
2.195611 -85.247834 465.611143
3.056468 -85.103120 465.529375
3.821067 -85.099931 465.451611
4.585667 -85.096743 465.373846
5.439975 -84.952056 465.292745
6.202937 -84.948874 465.215147
6.965899 -84.945692 465.137549
7.813658 -84.801040 465.057113
8.574983 -84.797865 464.979681
9.336308 -84.794690 464.902250
10.177518 -84.650058 464.822480
10.937205 -84.646890 464.745215
11.696893 -84.643722 464.667950
12.456580 -84.640554 464.590685
13.216268 -84.637385 464.513421
13.975955 -84.634217 464.436156
14.735644 -84.631049 464.358891
15.495331 -84.627881 464.281626
16.255020 -84.624713 464.204361
17.014707 -84.621544 464.127096
17.710881 -84.759765 464.050504
18.472206 -84.756590 463.973073
19.233532 -84.753415 463.895641
19.936255 -84.891600 463.818383
20.699218 -84.888419 463.740785
21.462179 -84.885237 463.663187
-6.572580 -84.929875 466.517459
-4.808310 -84.643583 466.349460
-4.040436 -84.640380 466.271362
-3.272562 -84.637178 466.193265
-2.504688 -84.633976 466.115167
-1.736814 -84.630773 466.037070
-0.968940 -84.627571 465.958972
-0.099904 -84.484475 465.876305
0.666333 -84.481280 465.798374
1.432570 -84.478084 465.720443
2.198807 -84.474889 465.642512
3.059657 -84.331828 465.560677
3.824256 -84.328639 465.482912
4.588856 -84.325450 465.405148
5.443157 -84.182416 465.323979
6.206119 -84.179234 465.246381
6.969081 -84.176053 465.168783
7.816834 -84.033047 465.088280
8.578158 -84.029872 465.010849
9.339484 -84.026697 464.933417
10.180686 -83.883717 464.853581
10.940374 -83.880549 464.776316
11.700061 -83.877381 464.699051
12.459749 -83.874213 464.621786
13.219436 -83.871045 464.544521
13.979124 -83.867876 464.467256
14.738812 -83.864708 464.389991
15.498500 -83.861540 464.312726
16.258188 -83.858372 464.235461
17.017876 -83.855204 464.158196
17.714056 -83.991772 464.081671
18.475381 -83.988597 464.004240
19.236707 -83.985422 463.926808
19.939437 -84.121961 463.849618
20.702400 -84.118779 463.772020
21.465361 -84.115598 463.694422
-5.798215 -84.148763 466.470598
-5.027066 -84.145547 466.392168
-4.255918 -84.142331 466.313737
-3.377065 -84.000848 466.230003
-2.607553 -83.997639 466.151739
-0.965738 -83.852973 465.990408
-0.197864 -83.849771 465.912310
2.202002 -83.701944 465.673880
2.968239 -83.698749 465.595949
3.734476 -83.695553 465.518018
6.121243 -83.547781 465.280920
8.498187 -83.400051 465.044821
9.261150 -83.396869 464.967223
-5.794998 -83.370860 466.502168
-5.023850 -83.367644 466.423737
-4.252702 -83.364428 466.345307
-3.373855 -83.224598 466.261506
-2.604344 -83.221389 466.183242
-1.168108 -83.351564 466.031584
-0.396959 -83.348348 465.953154
0.374189 -83.345132 465.874723
1.243212 -83.205343 465.791922
2.012723 -83.202134 465.713658
2.782234 -83.198925 465.635394
3.644708 -83.059162 465.553258
4.412582 -83.055960 465.475160
5.180456 -83.052757 465.397063
6.036381 -82.913022 465.315593
6.802618 -82.909826 465.237662
7.653631 -82.770105 465.156693
8.418231 -82.766916 465.078928
9.182829 -82.763727 465.001164
9.947429 -82.760539 464.923399
10.712028 -82.757350 464.845635
11.476628 -82.754161 464.767870
12.241227 -82.750973 464.690106
13.005827 -82.747784 464.612341
13.770426 -82.744595 464.534577
14.535025 -82.741407 464.456812
15.299625 -82.738218 464.379048
16.064223 -82.735029 464.301284
16.828823 -82.731841 464.223519
17.529930 -82.865089 464.146628
18.296168 -82.861894 464.068697
19.062405 -82.858698 463.990766
-1.164892 -82.573668 466.063154
-0.393743 -82.570452 465.984723
0.377405 -82.567236 465.906293
1.246421 -82.429092 465.823424
2.015933 -82.425883 465.745160
2.785444 -82.422673 465.666896
3.647910 -82.284564 465.584694
4.415785 -82.281362 465.506596
5.183658 -82.278159 465.428498
6.039577 -82.140077 465.346962
6.805814 -82.136882 465.269031
7.656820 -81.998812 465.187994
8.421420 -81.995623 465.110230
9.186018 -81.992435 465.032465
9.950618 -81.989246 464.954701
10.715217 -81.986057 464.876936
11.479817 -81.982869 464.799172
12.244416 -81.979680 464.721407
13.009016 -81.976491 464.643643
13.773615 -81.973303 464.565878
14.538214 -81.970114 464.488114
15.302814 -81.966925 464.410349
16.067412 -81.963737 464.332585
16.832012 -81.960548 464.254820
17.533126 -82.092145 464.177997
18.299364 -82.088949 464.100066
1.151769 -81.786117 465.859432
1.922918 -81.782901 465.781001
2.694067 -81.779685 465.702571
6.722609 -81.497158 465.303739
7.490483 -81.493955 465.225641
9.107719 -81.354350 465.066606
9.873956 -81.351155 464.988675
10.640192 -81.347959 464.910744
1.154986 -81.008214 465.891001
1.926134 -81.004998 465.812571
2.697283 -81.001782 465.734140
5.869907 -80.857344 465.416845
6.639418 -80.854135 465.338581
7.493686 -80.719357 465.257077
8.261559 -80.716155 465.178979
9.029433 -80.712953 465.100882
9.797307 -80.709750 465.022784
10.565181 -80.706548 464.944687
6.642627 -80.077885 465.370083
7.496888 -79.944760 465.288512
8.264762 -79.941558 465.210415
9.032635 -79.938356 465.132317
9.800510 -79.935153 465.054220
10.568384 -79.931951 464.976122
